<svg width="458" height="27" viewBox="0 0 458 27" fill="none" xmlns="http://www.w3.org/2000/svg">
<g clip-path="url(#clip0_153_49)">
<g clip-path="url(#clip1_153_49)">
<path d="M10.1988 26.4C22.4504 26.4 29.1543 16.2402 29.1543 7.44454C29.1543 7.15869 29.1543 6.87284 29.1414 6.587C30.4405 5.65157 31.5709 4.4693 32.4673 3.1311C31.2721 3.66378 29.9858 4.01457 28.6346 4.18346C30.0118 3.36496 31.0642 2.05275 31.5709 0.4937C30.2846 1.26023 28.8555 1.80591 27.3354 2.10473C26.1142 0.80551 24.3862 0 22.4764 0C18.7996 0 15.8114 2.98819 15.8114 6.66494C15.8114 7.18463 15.8764 7.69138 15.9803 8.18506C10.4457 7.91221 5.53464 5.24882 2.24764 1.22126C1.67598 2.20866 1.35118 3.35197 1.35118 4.57323C1.35118 6.88585 2.53347 8.92564 4.31338 10.1209C3.22205 10.0819 2.19567 9.78305 1.29921 9.28937C1.29921 9.31537 1.29921 9.34138 1.29921 9.38032C1.29921 12.6023 3.59882 15.3047 6.63901 15.9154C6.08032 16.0713 5.49567 16.1493 4.88504 16.1493C4.4563 16.1493 4.04055 16.1102 3.63779 16.0323C4.48228 18.6827 6.95079 20.6055 9.86099 20.6575C7.57436 22.4504 4.70315 23.5157 1.58504 23.5157C1.05236 23.5157 0.519685 23.4898 0 23.4248C2.93622 25.2957 6.44409 26.4 10.1988 26.4Z" fill="#55ACEE"/>
</g>
</g>
<defs>
<clipPath id="clip0_153_49">
<rect width="458" height="26.4" fill="white"/>
</clipPath>
<clipPath id="clip1_153_49">
<rect width="33" height="26.4" fill="white"/>
</clipPath>
</defs>
</svg>
