<svg width="20" height="20" viewBox="0 0 20 20" fill="none" xmlns="http://www.w3.org/2000/svg">
<path d="M17.5 1.25003H2.5C1.80833 1.25003 1.25 1.8167 1.25 2.50837V17.5C1.25 18.1917 1.80833 18.7584 2.5 18.7584H17.5C18.1833 18.7584 18.75 18.1917 18.75 17.5V2.50003C18.75 1.80837 18.1833 1.2417 17.5 1.2417V1.25003ZM6.54167 16.25H3.94167V7.90003H6.54167V16.25ZM5.24167 6.75003C4.84384 6.75003 4.46231 6.592 4.18101 6.31069C3.8997 6.02939 3.74167 5.64786 3.74167 5.25003C3.74167 4.85221 3.8997 4.47068 4.18101 4.18937C4.46231 3.90807 4.84384 3.75003 5.24167 3.75003C5.63949 3.75003 6.02102 3.90807 6.30233 4.18937C6.58363 4.47068 6.74167 4.85221 6.74167 5.25003C6.74167 5.64786 6.58363 6.02939 6.30233 6.31069C6.02102 6.592 5.63949 6.75003 5.24167 6.75003ZM16.2583 16.25H13.675V12.1834C13.675 11.2167 13.65 9.97503 12.3167 9.97503C10.9667 9.97503 10.7583 11.025 10.7583 12.1167V16.25H8.175V7.90003H10.6583V9.0417H10.6917C10.9413 8.61559 11.3016 8.26506 11.7345 8.02736C12.1673 7.78966 12.6565 7.67366 13.15 7.6917C15.775 7.6917 16.2583 9.42503 16.2583 11.675V16.25Z" fill="#A1A1AA"/>
</svg>
