<svg width="57" height="53" viewBox="0 0 57 53" fill="none" xmlns="http://www.w3.org/2000/svg">
<path d="M28.1942 4.79479C35.6215 4.81555 36.6343 4.81838 39.6727 4.82687C42.3735 4.83442 43.7216 5.46706 44.7332 5.78432C46.0813 6.41696 47.093 6.73422 48.1024 7.68035C49.1117 8.62647 49.7835 9.57165 50.1165 10.8303C50.4506 11.7746 50.7837 13.0332 51.1121 15.5496C51.1017 18.3795 51.0994 19.0084 51.073 26.2403C51.0466 33.4722 51.0443 34.101 51.034 36.9309C51.0248 39.4464 50.345 40.7022 50.004 41.6446C49.3242 42.9004 48.9831 43.8427 47.9669 44.7832C46.9506 45.7237 45.9355 46.3497 44.584 46.6603C43.57 46.9719 42.2185 47.2826 39.5165 47.5895C36.4781 47.581 35.8029 47.5791 28.0381 47.5574C20.2733 47.5357 19.5981 47.5338 16.5597 47.5253C13.8589 47.5178 12.5108 46.8851 11.4991 46.5679C10.151 45.9352 9.13933 45.618 8.12997 44.6718C7.12062 43.7257 6.44886 42.7805 6.11585 41.5219C5.78169 40.5776 5.44868 39.319 5.12027 36.8026C5.1306 33.9727 5.1329 33.3438 5.1593 26.1119C5.18571 18.88 5.18801 18.2512 5.19834 15.4213C5.20752 12.9058 5.88732 11.65 6.22836 10.7076C6.90816 9.4518 7.24921 8.50945 8.26545 7.56899C9.2817 6.62853 10.2968 6.0025 11.6484 5.69184C12.6623 5.38024 14.0139 5.06959 16.7158 4.7627C19.7542 4.7712 20.767 4.77403 28.1942 4.79479ZM28.2115 0.0783242C20.4466 0.0566199 19.7714 0.0547326 16.733 0.0462396C13.6946 0.0377466 11.6667 0.660948 9.97642 1.28509C8.28612 1.90924 6.59467 2.84781 4.90092 4.41525C3.20718 5.98268 2.52738 7.23852 1.50769 9.12227C0.82675 10.6925 0.482259 12.5782 0.134324 15.4071C0.123991 18.237 0.120547 19.1803 0.0952885 26.0978C0.0688817 33.3297 0.0665855 33.9585 0.0562524 36.7884C0.0459194 39.6183 0.714235 41.5068 1.3837 43.0808C2.05316 44.6549 3.06022 46.2298 4.74248 47.8067C6.42475 49.3836 7.77286 50.0162 9.79502 50.9652C11.4807 51.5988 13.5052 51.9189 16.5424 52.2418C19.5809 52.2503 20.5937 52.2531 28.0209 52.2739C35.4481 52.2946 36.4609 52.2975 39.4993 52.3059C42.5377 52.3144 44.5656 51.6912 46.2559 51.0671C47.9462 50.443 49.6377 49.5044 51.3314 47.9369C53.0252 46.3695 53.705 45.1137 54.7246 43.2299C55.4056 41.6596 55.7501 39.774 56.098 36.9451C56.1083 34.1152 56.1118 33.1719 56.137 26.2544C56.1623 19.3369 56.1657 18.3936 56.1761 15.5638C56.1864 12.7339 55.5181 10.8454 54.8486 9.27137C54.1792 7.69733 53.1721 6.12235 51.4899 4.54547C49.8076 2.9686 48.4595 2.33596 46.4373 1.38701C44.7516 0.753428 42.7272 0.433333 39.6899 0.110409C36.6515 0.101916 35.9763 0.100028 28.2115 0.0783242Z" fill="#C0B7E8"/>
<path d="M28.1655 12.6556C20.0631 12.6329 13.6269 18.5892 13.5993 26.1355C13.5718 33.6819 19.9644 39.674 28.0668 39.6966C36.1692 39.7193 42.6055 33.763 42.633 26.2167C42.6606 18.6703 36.268 12.6782 28.1655 12.6556ZM28.084 34.9802C23.02 34.966 18.645 31.1806 18.6633 26.1497C18.6806 21.4332 22.7467 17.3569 28.1483 17.372C33.2123 17.3862 37.5874 21.1716 37.569 26.2025C37.5518 30.919 33.148 34.9943 28.084 34.9802Z" fill="#C0B7E8"/>
<path d="M43.0096 15.527C44.8742 15.5322 46.3908 14.1286 46.3971 12.3921C46.4035 10.6555 44.8971 9.24356 43.0326 9.23835C41.1681 9.23313 39.6515 10.6367 39.6451 12.3732C39.6388 14.1098 41.1451 15.5218 43.0096 15.527Z" fill="#C0B7E8"/>
</svg>
