<svg width="791" height="790" viewBox="0 0 791 790" fill="none" xmlns="http://www.w3.org/2000/svg">
<path opacity="0.275362" d="M51.4602 719.926C53.1276 729.48 60.6092 736.962 70.1634 738.629L349.76 787.425C355.907 788.498 362.227 787.026 367.269 783.349L681.462 554.14C685.557 551.153 688.55 546.896 689.977 542.032L787.095 210.91C789.462 202.839 787.235 194.12 781.288 188.173L601.916 8.80119C595.969 2.85406 587.25 0.627282 579.18 2.99435L248.057 100.112C243.193 101.539 238.936 104.533 235.949 108.628L6.74061 422.82C3.06258 427.862 1.59121 434.182 2.66415 440.329L51.4602 719.926Z" stroke="url(#paint0_linear_148_86)" stroke-width="4"/>
<defs>
<linearGradient id="paint0_linear_148_86" x1="52.5107" y1="737.578" x2="751.654" y2="38.4354" gradientUnits="userSpaceOnUse">
<stop stop-color="#FF1CF7"/>
<stop offset="1" stop-color="#00F0FF"/>
</linearGradient>
</defs>
</svg>
