<svg width="796" height="749" viewBox="0 0 796 749" fill="none" xmlns="http://www.w3.org/2000/svg">
<path opacity="0.304348" d="M22.9719 647.427C23.6668 657.03 30.2698 665.184 39.5187 667.86L307.73 745.472C313.747 747.213 320.213 746.425 325.635 743.291L654.894 552.938C659.317 550.381 662.763 546.424 664.688 541.691L792.053 228.526C795.21 220.763 793.895 211.898 788.622 205.386L631.087 10.847C625.813 4.33481 617.416 1.20597 609.167 2.68003L276.364 62.1512C271.334 63.05 266.747 65.5978 263.326 69.3927L8.67674 351.88C4.48315 356.532 2.36807 362.693 2.82011 368.939L22.9719 647.427Z" stroke="url(#paint0_linear_148_88)" stroke-width="4"/>
<defs>
<linearGradient id="paint0_linear_148_88" x1="22.234" y1="664.941" x2="774.502" y2="55.7664" gradientUnits="userSpaceOnUse">
<stop stop-color="#FF1CF7"/>
<stop offset="1" stop-color="#00F0FF"/>
</linearGradient>
</defs>
</svg>
