<svg width="717" height="964" viewBox="0 0 717 964" fill="none" xmlns="http://www.w3.org/2000/svg">
<path opacity="0.15942" d="M196.07 960.326L488.111 882.138C494.058 880.546 499.118 876.636 502.16 871.284L711.26 503.299C713.692 499.019 714.686 494.072 714.097 489.185L669.464 118.763C668.444 110.301 662.828 103.097 654.871 100.043L405.521 4.32585C397.564 1.27139 388.57 2.86773 382.15 8.47395L101.12 253.885C97.4125 257.123 94.8414 261.465 93.7848 266.273L2.94649 679.653C1.62518 685.666 2.7696 691.958 6.12367 697.12L170.835 950.639C176.261 958.992 186.448 962.902 196.07 960.326Z" stroke="url(#paint0_linear_148_78)" stroke-width="4"/>
<defs>
<linearGradient id="paint0_linear_148_78" x1="179.049" y1="966.953" x2="563.125" y2="-33.5997" gradientUnits="userSpaceOnUse">
<stop stop-color="#FF1CF7"/>
<stop offset="1" stop-color="#00F0FF"/>
</linearGradient>
</defs>
</svg>
