<svg width="808" height="676" viewBox="0 0 808 676" fill="none" xmlns="http://www.w3.org/2000/svg">
<path opacity="0.347826" d="M2.58793 531.228C1.843 540.718 7.0207 549.686 15.6115 553.786L261.38 671.072C267.064 673.785 273.612 674.048 279.495 671.8L622.728 540.664C627.56 538.818 631.629 535.397 634.277 530.954L801.985 249.55C806.25 242.394 806.312 233.49 802.146 226.276L679.487 13.8245C675.322 6.6096 667.58 2.2113 659.25 2.32669L331.694 6.86431C326.521 6.93598 321.525 8.749 317.51 12.0106L32.3265 243.691C27.4383 247.663 24.3924 253.464 23.8995 259.743L2.58793 531.228Z" stroke="url(#paint0_linear_148_91)" stroke-width="4"/>
<defs>
<linearGradient id="paint0_linear_148_91" x1="-0.75" y1="548.194" x2="810.597" y2="79.7625" gradientUnits="userSpaceOnUse">
<stop stop-color="#FF1CF7"/>
<stop offset="1" stop-color="#00F0FF"/>
</linearGradient>
</defs>
</svg>
