<svg width="795" height="726" viewBox="0 0 795 726" fill="none" xmlns="http://www.w3.org/2000/svg">
<path opacity="0.318841" d="M24.2452 631.244L285.66 722.591C291.583 724.661 298.095 724.221 303.686 721.373L638.749 550.701C643.32 548.373 646.981 544.583 649.151 539.935L790.662 236.757C794.2 229.178 793.344 220.276 788.428 213.51L642.272 12.3438C637.356 5.57743 629.155 2.01299 620.854 3.03535L288.785 43.9331C283.693 44.5602 278.958 46.8714 275.331 50.4992L9.47228 316.422C5.03599 320.86 2.60519 326.917 2.74329 333.19L8.83785 610.038C9.04897 619.628 15.1897 628.08 24.2452 631.244Z" stroke="url(#paint0_linear_148_89)" stroke-width="4"/>
<defs>
<linearGradient id="paint0_linear_148_89" x1="107.574" y1="613.986" x2="882.299" y2="51.1153" gradientUnits="userSpaceOnUse">
<stop stop-color="#FF1CF7"/>
<stop offset="1" stop-color="#00F0FF"/>
</linearGradient>
</defs>
</svg>
