<svg width="702" height="999" viewBox="0 0 702 999" fill="none" xmlns="http://www.w3.org/2000/svg">
<path opacity="0.130435" d="M199.647 988.089C205.927 995.899 216.542 998.743 225.886 995.12L512.092 884.139C517.813 881.92 522.411 877.507 524.862 871.882L697.344 476.005C699.297 471.523 699.771 466.535 698.697 461.765L615.181 90.9359C613.303 82.5959 606.954 75.9856 598.696 73.773L337.457 3.77404C329.199 1.56139 320.395 4.11144 314.599 10.3951L56.8576 289.785C53.5424 293.378 51.4586 297.935 50.9088 302.793L2.34453 731.873C1.65438 737.971 3.42957 744.092 7.27521 748.874L199.647 988.089Z" stroke="url(#paint0_linear_148_76)" stroke-width="4"/>
<defs>
<linearGradient id="paint0_linear_148_76" x1="209.552" y1="1003.6" x2="492.309" y2="-51.6636" gradientUnits="userSpaceOnUse">
<stop stop-color="#FF1CF7"/>
<stop offset="1" stop-color="#00F0FF"/>
</linearGradient>
</defs>
</svg>
