<svg width="751" height="866" viewBox="0 0 751 866" fill="none" xmlns="http://www.w3.org/2000/svg">
<path opacity="0.217391" d="M111.712 849.236C115.307 858.389 124.323 864.244 134.146 863.805L426.914 850.729C433.106 850.452 438.923 847.689 443.049 843.065L713.411 540.065C716.735 536.339 718.757 531.633 719.17 526.657L748.919 168.814C749.62 160.374 745.627 152.231 738.524 147.619L520.158 5.80982C513.055 1.19731 503.993 0.861204 496.568 4.93497L181.761 177.659C177.383 180.061 173.907 183.822 171.855 188.374L5.01685 558.603C2.47063 564.253 2.3124 570.692 4.57804 576.461L111.712 849.236Z" stroke="url(#paint0_linear_148_82)" stroke-width="4"/>
<defs>
<linearGradient id="paint0_linear_148_82" x1="116.383" y1="866.6" x2="677.491" y2="2.57041" gradientUnits="userSpaceOnUse">
<stop stop-color="#FF1CF7"/>
<stop offset="1" stop-color="#00F0FF"/>
</linearGradient>
</defs>
</svg>
