<svg width="735" height="894" viewBox="0 0 735 894" fill="none" xmlns="http://www.w3.org/2000/svg">
<path opacity="0.202899" d="M126.313 877.979C130.378 886.968 139.724 892.364 149.541 891.39L443.472 862.22C449.628 861.609 455.279 858.544 459.148 853.716L715.772 533.478C718.883 529.596 720.651 524.81 720.812 519.838L732.511 157.444C732.785 148.966 728.369 141.025 721.023 136.783L494.081 5.75821C486.734 1.51677 477.65 1.66342 470.444 6.13964L162.452 197.468C158.226 200.093 154.965 204.018 153.158 208.653L4.13643 591.014C1.88969 596.779 2.06021 603.206 4.60947 608.843L126.313 877.979Z" stroke="url(#paint0_linear_148_81)" stroke-width="4"/>
<defs>
<linearGradient id="paint0_linear_148_81" x1="131.884" y1="895.152" x2="652.19" y2="-6.04499" gradientUnits="userSpaceOnUse">
<stop stop-color="#FF1CF7"/>
<stop offset="1" stop-color="#00F0FF"/>
</linearGradient>
</defs>
</svg>
