<svg width="698" height="1071" viewBox="0 0 698 1071" fill="none" xmlns="http://www.w3.org/2000/svg">
<path opacity="0.0289855" d="M405.306 1065.6C414.081 1070.85 425.265 1069.67 432.757 1062.72L669.672 842.77C674.121 838.639 676.757 832.917 677.004 826.852L695.834 365.419C696.029 360.642 694.73 355.922 692.118 351.917L471.036 12.9397C466.32 5.70911 457.952 1.72798 449.367 2.63033L168.655 32.1343C160.07 33.0367 152.713 38.6705 149.603 46.7238L3.8296 424.259C2.10726 428.72 1.81798 433.606 3.00201 438.239L117.357 885.673C118.86 891.555 122.628 896.604 127.839 899.719L405.306 1065.6Z" stroke="url(#paint0_linear_148_69)" stroke-width="4"/>
<defs>
<linearGradient id="paint0_linear_148_69" x1="420.375" y1="1076.94" x2="298.588" y2="-81.7898" gradientUnits="userSpaceOnUse">
<stop stop-color="#FF1CF7"/>
<stop offset="1" stop-color="#00F0FF"/>
</linearGradient>
</defs>
</svg>
