<svg width="765" height="841" viewBox="0 0 765 841" fill="none" xmlns="http://www.w3.org/2000/svg">
<path opacity="0.231884" d="M96.2957 819.685C99.4143 828.976 108.078 835.27 117.878 835.365L408.612 838.178C414.819 838.238 420.788 835.786 425.161 831.379L708.166 546.168C711.695 542.611 713.967 537.998 714.634 533.031L761.991 180.624C763.117 172.245 759.555 163.923 752.715 158.953L543.426 6.89623C536.586 1.92669 527.571 1.11047 519.949 4.77073L199.424 158.709C194.907 160.879 191.221 164.464 188.929 168.921L5.13043 526.209C2.29056 531.73 1.80293 538.164 3.77838 544.049L96.2957 819.685Z" stroke="url(#paint0_linear_148_83)" stroke-width="4"/>
<defs>
<linearGradient id="paint0_linear_148_83" x1="100.063" y1="837.193" x2="699.523" y2="12.1065" gradientUnits="userSpaceOnUse">
<stop stop-color="#FF1CF7"/>
<stop offset="1" stop-color="#00F0FF"/>
</linearGradient>
</defs>
</svg>
