<svg width="776" height="863" viewBox="0 0 776 863" fill="none" xmlns="http://www.w3.org/2000/svg">
<path opacity="0.246377" d="M101.771 842.14L389.618 860.592C395.824 860.99 401.926 858.858 406.534 854.681L701.069 587.744C704.796 584.366 707.313 579.859 708.234 574.914L773.199 226.196C774.501 219.209 772.5 212.014 767.779 206.703L593.517 10.6601C587.003 3.33216 576.56 0.939092 567.505 4.69951L244.894 138.679C240.337 140.572 236.51 143.88 233.977 148.114L5.65747 529.835C2.41523 535.255 1.54489 541.771 3.25066 547.852L81.0971 825.399C83.7348 834.803 92.0242 841.516 101.771 842.14Z" stroke="url(#paint0_linear_148_84)" stroke-width="4"/>
<defs>
<linearGradient id="paint0_linear_148_84" x1="83.9575" y1="843.003" x2="719.249" y2="58.4833" gradientUnits="userSpaceOnUse">
<stop stop-color="#FF1CF7"/>
<stop offset="1" stop-color="#00F0FF"/>
</linearGradient>
</defs>
</svg>
