<svg width="784" height="809" viewBox="0 0 784 809" fill="none" xmlns="http://www.w3.org/2000/svg">
<path opacity="0.26087" d="M66.1441 754.454C68.2977 763.946 76.1927 771.054 85.8576 772.204L369.984 805.998C376.17 806.734 382.39 804.929 387.221 800.996L692.155 552.748C696.071 549.56 698.829 545.172 700.003 540.261L781.084 201.251C783.044 193.056 780.366 184.446 774.105 178.809L584.347 7.95016C578.086 2.31239 569.243 0.549461 561.299 3.35512L232.62 119.428C227.859 121.109 223.784 124.311 221.023 128.538L6.00923 457.751C2.60268 462.967 1.45767 469.341 2.83604 475.417L66.1441 754.454Z" stroke="url(#paint0_linear_148_85)" stroke-width="4"/>
<defs>
<linearGradient id="paint0_linear_148_85" x1="68.0982" y1="772.106" x2="736.635" y2="29.6205" gradientUnits="userSpaceOnUse">
<stop stop-color="#FF1CF7"/>
<stop offset="1" stop-color="#00F0FF"/>
</linearGradient>
</defs>
</svg>
