<svg width="711" height="982" viewBox="0 0 711 982" fill="none" xmlns="http://www.w3.org/2000/svg">
<path opacity="0.144928" d="M185.762 970.44C191.622 978.533 202.036 981.917 211.534 978.814L501.119 884.207C506.962 882.298 511.797 878.13 514.547 872.633L705.807 490.268C708.001 485.88 708.735 480.906 707.902 476.072L643.926 104.937C642.476 96.5247 636.486 89.6076 628.367 86.9697L372.75 3.91449C364.631 1.27664 355.72 3.35204 349.602 9.30531L79.6965 271.955C76.1806 275.376 73.8508 279.832 73.0474 284.672L3.03089 706.432C2.0243 712.495 3.4865 718.709 7.09126 723.687L185.762 970.44Z" stroke="url(#paint0_linear_148_77)" stroke-width="4"/>
<defs>
<linearGradient id="paint0_linear_148_77" x1="194.831" y1="986.375" x2="529.222" y2="-42.7753" gradientUnits="userSpaceOnUse">
<stop stop-color="#FF1CF7"/>
<stop offset="1" stop-color="#00F0FF"/>
</linearGradient>
</defs>
</svg>
