<svg width="679" height="1024" viewBox="0 0 679 1024" fill="none" xmlns="http://www.w3.org/2000/svg">
<path opacity="0.101449" d="M228.052 1014.69C235.131 1021.87 246.059 1023.6 255.01 1018.96L531.683 875.573C537.115 872.759 541.201 867.896 543.038 862.062L675.328 442.008C676.787 437.375 676.742 432.399 675.2 427.793L552.235 60.7036C549.512 52.5737 542.493 46.6334 534.024 45.2921L263.572 2.45674C255.104 1.11548 246.592 4.59595 241.49 11.4864L11.1071 322.612C8.2166 326.515 6.63611 331.233 6.59213 336.09L2.60357 776.465C2.54817 782.582 4.93182 788.469 9.22741 792.825L228.052 1014.69Z" stroke="url(#paint0_linear_148_74)" stroke-width="4"/>
<defs>
<linearGradient id="paint0_linear_148_74" x1="239.568" y1="1029.21" x2="413.717" y2="-70.3191" gradientUnits="userSpaceOnUse">
<stop stop-color="#FF1CF7"/>
<stop offset="1" stop-color="#00F0FF"/>
</linearGradient>
</defs>
</svg>
