<svg width="723" height="919" viewBox="0 0 723 919" fill="none" xmlns="http://www.w3.org/2000/svg">
<path opacity="0.188406" d="M165.023 916.049L459.228 870.631C465.332 869.688 470.801 866.33 474.403 861.313L716.218 524.455C719.109 520.428 720.621 515.575 720.53 510.619L713.784 144.594C713.627 136.099 708.8 128.382 701.23 124.524L466.245 4.79376C458.675 0.936397 449.594 1.56689 442.629 6.43356L142.544 216.12C138.48 218.959 135.443 223.036 133.884 227.741L3.49622 621.374C1.55401 627.237 2.05178 633.635 4.87745 639.128L141.062 903.84C145.59 912.642 155.241 917.559 165.023 916.049Z" stroke="url(#paint0_linear_148_80)" stroke-width="4"/>
<defs>
<linearGradient id="paint0_linear_148_80" x1="147.525" y1="920.774" x2="624.663" y2="-15.6623" gradientUnits="userSpaceOnUse">
<stop stop-color="#FF1CF7"/>
<stop offset="1" stop-color="#00F0FF"/>
</linearGradient>
</defs>
</svg>
