<svg width="694" height="1043" viewBox="0 0 694 1043" fill="none" xmlns="http://www.w3.org/2000/svg">
<path opacity="0.057971" d="M333.267 1036.01C341.42 1042.08 352.595 1042.08 360.748 1036.01L616.247 845.662C621.13 842.024 624.372 836.599 625.26 830.575L691.417 382.181C692.119 377.421 691.311 372.561 689.107 368.285L506.892 14.8138C502.947 7.16112 495.058 2.35252 486.448 2.35252L207.567 2.35253C198.957 2.35253 191.068 7.16113 187.123 14.8138L4.90822 368.285C2.70377 372.561 1.89581 377.421 2.59803 382.181L68.7545 830.575C69.6433 836.599 72.8845 842.024 77.7675 845.662L333.267 1036.01Z" stroke="url(#paint0_linear_148_71)" stroke-width="4"/>
<defs>
<linearGradient id="paint0_linear_148_71" x1="347.007" y1="1048.74" x2="347.007" y2="-95.6257" gradientUnits="userSpaceOnUse">
<stop stop-color="#FF1CF7"/>
<stop offset="1" stop-color="#00F0FF"/>
</linearGradient>
</defs>
</svg>
