<svg width="697" height="1059" viewBox="0 0 697 1059" fill="none" xmlns="http://www.w3.org/2000/svg">
<path opacity="0.0434783" d="M369.548 1052.56C378.022 1058.23 389.217 1057.64 397.053 1051.12L643.697 845.769C648.369 841.879 651.311 836.297 651.88 830.243L694.656 374.715C695.104 369.94 694.049 365.144 691.637 360.998L489.885 14.2315C485.549 6.77976 477.411 2.37827 468.801 2.82947L188.616 17.5133C180.007 17.9645 172.373 23.1926 168.84 31.0568L4.44039 397.013C2.47499 401.388 1.92646 406.268 2.87156 410.97L93.029 859.532C94.227 865.492 97.7364 870.736 102.79 874.117L369.548 1052.56Z" stroke="url(#paint0_linear_148_70)" stroke-width="4"/>
<defs>
<linearGradient id="paint0_linear_148_70" x1="383.97" y1="1064.61" x2="323.536" y2="-88.5415" gradientUnits="userSpaceOnUse">
<stop stop-color="#FF1CF7"/>
<stop offset="1" stop-color="#00F0FF"/>
</linearGradient>
</defs>
</svg>
