<svg width="800" height="701" viewBox="0 0 800 701" fill="none" xmlns="http://www.w3.org/2000/svg">
<path opacity="0.333333" d="M2.73011 570.518C2.46084 580.07 8.126 588.794 16.9618 592.433L270.884 697.016C276.697 699.41 283.236 699.321 288.981 696.769L628.699 545.858C633.406 543.767 637.276 540.156 639.687 535.604L794.654 243.028C798.561 235.652 798.165 226.737 793.618 219.736L659.1 12.5969C654.554 5.59605 646.571 1.60806 638.243 2.17709L307.931 24.7451C302.792 25.0962 297.919 27.1623 294.094 30.6122L18.0546 279.579C13.3866 283.79 10.6453 289.727 10.4681 296.011L2.73011 570.518Z" stroke="url(#paint0_linear_148_90)" stroke-width="4"/>
<defs>
<linearGradient id="paint0_linear_148_90" x1="0.244679" y1="587.711" x2="794.665" y2="71.8084" gradientUnits="userSpaceOnUse">
<stop stop-color="#FF1CF7"/>
<stop offset="1" stop-color="#00F0FF"/>
</linearGradient>
</defs>
</svg>
