<svg width="721" height="943" viewBox="0 0 721 943" fill="none" xmlns="http://www.w3.org/2000/svg">
<path opacity="0.173913" d="M155.918 928.751C160.9 937.34 170.832 941.762 180.549 939.717L474.128 877.942C480.162 876.672 485.434 873.033 488.76 867.84L714.723 515.046C717.387 510.886 718.641 505.979 718.3 501.051L692.76 132.341C692.172 123.852 686.944 116.381 679.17 112.919L436.706 4.96741C428.932 1.50607 419.882 2.62028 413.179 7.86399L122.085 235.599C118.194 238.643 115.387 242.858 114.078 247.622L3.10005 651.611C1.46659 657.557 2.28926 663.91 5.38341 669.244L155.918 928.751Z" stroke="url(#paint0_linear_148_79)" stroke-width="4"/>
<defs>
<linearGradient id="paint0_linear_148_79" x1="163.263" y1="945.398" x2="594.958" y2="-24.2048" gradientUnits="userSpaceOnUse">
<stop stop-color="#FF1CF7"/>
<stop offset="1" stop-color="#00F0FF"/>
</linearGradient>
</defs>
</svg>
