<svg width="689" height="1040" viewBox="0 0 689 1040" fill="none" xmlns="http://www.w3.org/2000/svg">
<path opacity="0.0724638" d="M296.54 1031.98C304.354 1038.44 315.477 1039.02 323.923 1033.41L587.386 858.434C592.467 855.06 595.999 849.807 597.206 843.829L686.115 403.757C687.07 399.026 686.514 394.115 684.524 389.718L521.992 30.6276C518.446 22.7946 510.828 17.5931 502.242 17.1431L225.427 2.63585C216.841 2.18587 208.721 6.56254 204.376 13.982L5.19921 354.116C2.76045 358.281 1.69356 363.107 2.14957 367.912L44.5706 814.867C45.1468 820.938 48.1105 826.532 52.81 830.418L296.54 1031.98Z" stroke="url(#paint0_linear_148_72)" stroke-width="4"/>
<defs>
<linearGradient id="paint0_linear_148_72" x1="309.568" y1="1045.35" x2="368.917" y2="-87.0854" gradientUnits="userSpaceOnUse">
<stop stop-color="#FF1CF7"/>
<stop offset="1" stop-color="#00F0FF"/>
</linearGradient>
</defs>
</svg>
