<svg width="704" height="1081" viewBox="0 0 704 1081" fill="none" xmlns="http://www.w3.org/2000/svg">
<path opacity="0.0144928" d="M441.46 1076.09C450.513 1080.9 461.655 1079.13 468.78 1071.76L695.111 837.683C699.324 833.325 701.647 827.479 701.574 821.418L695.956 355.353C695.899 350.586 694.361 345.954 691.557 342.099L451.411 11.9929C446.326 5.00312 437.751 1.45437 429.214 2.80656L148.763 47.2256C140.226 48.5778 133.167 54.6026 130.491 62.8216L4.10719 450.981C2.63125 455.514 2.60034 460.393 4.01875 464.945L142.698 909.935C144.501 915.723 148.517 920.564 153.871 923.406L441.46 1076.09Z" stroke="url(#paint0_linear_148_68)" stroke-width="4"/>
<defs>
<linearGradient id="paint0_linear_148_68" x1="457.14" y1="1086.68" x2="273.253" y2="-74.3341" gradientUnits="userSpaceOnUse">
<stop stop-color="#FF1CF7"/>
<stop offset="1" stop-color="#00F0FF"/>
</linearGradient>
</defs>
</svg>
