<svg width="794" height="771" viewBox="0 0 794 771" fill="none" xmlns="http://www.w3.org/2000/svg">
<path opacity="0.289855" d="M54.5349 704.087L328.817 767.503C334.908 768.911 341.31 767.779 346.549 764.367L668.851 554.48C673.116 551.703 676.338 547.59 678.015 542.786L790.573 220.291C793.339 212.365 791.567 203.561 785.95 197.322L617.331 10.0518C611.713 3.81292 603.143 1.1304 594.971 3.05317L262.478 81.2841C257.524 82.4495 253.097 85.225 249.889 89.1756L7.46212 387.773C3.52152 392.626 1.72654 398.875 2.49044 405.08L36.8883 684.488C38.0691 694.08 45.1196 701.91 54.5349 704.087Z" stroke="url(#paint0_linear_148_87)" stroke-width="4"/>
<defs>
<linearGradient id="paint0_linear_148_87" x1="105.217" y1="735.497" x2="832.282" y2="80.845" gradientUnits="userSpaceOnUse">
<stop stop-color="#FF1CF7"/>
<stop offset="1" stop-color="#00F0FF"/>
</linearGradient>
</defs>
</svg>
