<svg width="692" height="1013" viewBox="0 0 692 1013" fill="none" xmlns="http://www.w3.org/2000/svg">
<path opacity="0.115942" d="M214.431 1002.52C221.118 1010.03 231.904 1012.32 241.065 1008.19L522.967 880.929C528.552 878.408 532.899 873.763 535.046 868.025L687.856 459.567C689.564 455.003 689.777 450.014 688.467 445.321L585.27 75.8347C582.967 67.5887 576.274 61.3044 567.9 59.5243L301.708 2.94349C293.333 1.16344 284.663 4.18228 279.205 10.7786L34.6471 306.347C31.5406 310.102 29.7068 314.746 29.4103 319.61L2.87449 754.908C2.50168 761.024 4.58428 767.035 8.66039 771.61L214.431 1002.52Z" stroke="url(#paint0_linear_148_75)" stroke-width="4"/>
<defs>
<linearGradient id="paint0_linear_148_75" x1="225.153" y1="1017.56" x2="454.451" y2="-61.1986" gradientUnits="userSpaceOnUse">
<stop stop-color="#FF1CF7"/>
<stop offset="1" stop-color="#00F0FF"/>
</linearGradient>
</defs>
</svg>
