<svg width="683" height="1033" viewBox="0 0 683 1033" fill="none" xmlns="http://www.w3.org/2000/svg">
<path opacity="0.0869565" d="M260.445 1024.52C267.9 1031.35 278.94 1032.51 287.652 1027.38L558.178 868.074C563.441 864.974 567.255 859.909 568.779 853.994L679.751 423.385C680.959 418.697 680.657 413.747 678.887 409.24L536.125 45.6122C532.988 37.62 525.659 32.041 517.12 31.1435L243.121 2.34499C234.582 1.4475 226.254 5.381 221.523 12.5462L6.27821 338.546C3.61056 342.586 2.28592 347.365 2.49299 352.202L21.5108 796.474C21.772 802.576 24.4496 808.324 28.9532 812.45L260.445 1024.52Z" stroke="url(#paint0_linear_148_73)" stroke-width="4"/>
<defs>
<linearGradient id="paint0_linear_148_73" x1="272.731" y1="1038.49" x2="390.18" y2="-78.9664" gradientUnits="userSpaceOnUse">
<stop stop-color="#FF1CF7"/>
<stop offset="1" stop-color="#00F0FF"/>
</linearGradient>
</defs>
</svg>
